<svg width="210" height="100" viewBox="0 0 210 100" fill="none" xmlns="http://www.w3.org/2000/svg">
<path d="M180.282 88.0252V57.2676H194.694C198.385 57.2676 201.197 57.9999 203.131 59.4645C205.064 60.8999 206.031 62.8332 206.031 65.2646C206.031 66.905 205.65 68.311 204.888 69.4827C204.127 70.6252 203.101 71.5186 201.813 72.163C200.553 72.7782 199.176 73.0858 197.682 73.0858L198.473 71.5039C200.201 71.5039 201.754 71.8262 203.131 72.4706C204.507 73.0858 205.591 73.9938 206.382 75.1949C207.202 76.3959 207.613 77.8898 207.613 79.6767C207.613 82.313 206.602 84.3635 204.581 85.8282C202.559 87.2928 199.557 88.0252 195.573 88.0252H180.282ZM185.994 83.5433H195.222C197.36 83.5433 199 83.1918 200.143 82.4888C201.285 81.7858 201.856 80.658 201.856 79.1055C201.856 77.5822 201.285 76.4691 200.143 75.7661C199 75.0337 197.36 74.6676 195.222 74.6676H185.555V70.2297H194.079C196.071 70.2297 197.594 69.8782 198.649 69.1752C199.733 68.4721 200.275 67.4176 200.275 66.0115C200.275 64.5762 199.733 63.507 198.649 62.8039C197.594 62.1009 196.071 61.7494 194.079 61.7494H185.994V83.5433Z" fill="#BD024D"/>
<path d="M160.09 88.0252V62.1009H149.896V57.2676H175.996V62.1009H165.803V88.0252H160.09Z" fill="#BD024D"/>
<path d="M131.408 88.0252L117.963 57.2676H124.158L136.154 85.0812H132.595L144.722 57.2676H150.434L137.033 88.0252H131.408Z" fill="#BD024D"/>
<path d="M192.342 39.5413V21.8747H195.408V26.6413L194.908 25.3747C195.486 24.2191 196.375 23.3191 197.575 22.6747C198.775 22.0302 200.175 21.708 201.775 21.708C203.22 21.708 204.486 21.9858 205.575 22.5413C206.686 23.0969 207.553 23.9413 208.175 25.0747C208.797 26.208 209.108 27.6413 209.108 29.3747V39.5413H205.908V29.7413C205.908 28.0302 205.486 26.7413 204.642 25.8747C203.82 25.008 202.653 24.5747 201.142 24.5747C200.008 24.5747 199.02 24.7969 198.175 25.2413C197.331 25.6858 196.675 26.3413 196.208 27.208C195.764 28.0747 195.542 29.1525 195.542 30.4413V39.5413H192.342Z" fill="#333333"/>
<path d="M179.798 39.7413C177.909 39.7413 176.242 39.3525 174.798 38.5747C173.376 37.7969 172.265 36.7302 171.465 35.3747C170.687 34.0191 170.298 32.4636 170.298 30.708C170.298 28.9525 170.676 27.3969 171.431 26.0413C172.209 24.6858 173.265 23.6302 174.598 22.8747C175.953 22.0969 177.476 21.708 179.165 21.708C180.876 21.708 182.387 22.0858 183.698 22.8413C185.009 23.5969 186.031 24.6636 186.765 26.0413C187.52 27.3969 187.898 28.9858 187.898 30.808C187.898 30.9413 187.887 31.0969 187.865 31.2747C187.865 31.4525 187.853 31.6191 187.831 31.7747H172.798V29.4747H186.165L184.865 30.2747C184.887 29.1413 184.653 28.1302 184.165 27.2413C183.676 26.3525 182.998 25.6636 182.131 25.1747C181.287 24.6636 180.298 24.408 179.165 24.408C178.053 24.408 177.065 24.6636 176.198 25.1747C175.331 25.6636 174.653 26.3636 174.165 27.2747C173.676 28.1636 173.431 29.1858 173.431 30.3413V30.8747C173.431 32.0525 173.698 33.108 174.231 34.0413C174.787 34.9525 175.553 35.6636 176.531 36.1747C177.509 36.6858 178.631 36.9413 179.898 36.9413C180.942 36.9413 181.887 36.7636 182.731 36.408C183.598 36.0525 184.353 35.5191 184.998 34.808L186.765 36.8747C185.965 37.808 184.965 38.5191 183.765 39.008C182.587 39.4969 181.265 39.7413 179.798 39.7413Z" fill="#333333"/>
<path d="M158.577 39.7413C157.11 39.7413 155.766 39.408 154.543 38.7413C153.343 38.0525 152.377 37.0413 151.643 35.708C150.932 34.3747 150.577 32.708 150.577 30.708C150.577 28.708 150.921 27.0413 151.61 25.708C152.321 24.3747 153.277 23.3747 154.477 22.708C155.699 22.0413 157.066 21.708 158.577 21.708C160.31 21.708 161.843 22.0858 163.177 22.8413C164.51 23.5969 165.566 24.6525 166.343 26.008C167.121 27.3413 167.51 28.908 167.51 30.708C167.51 32.508 167.121 34.0858 166.343 35.4413C165.566 36.7969 164.51 37.8525 163.177 38.608C161.843 39.3636 160.31 39.7413 158.577 39.7413ZM149.21 46.008V21.8747H152.277V26.6413L152.077 30.7413L152.41 34.8413V46.008H149.21ZM158.31 36.9413C159.443 36.9413 160.454 36.6858 161.343 36.1747C162.254 35.6636 162.966 34.9413 163.477 34.008C164.01 33.0525 164.277 31.9525 164.277 30.708C164.277 29.4413 164.01 28.3525 163.477 27.4413C162.966 26.508 162.254 25.7858 161.343 25.2747C160.454 24.7636 159.443 24.508 158.31 24.508C157.199 24.508 156.188 24.7636 155.277 25.2747C154.388 25.7858 153.677 26.508 153.143 27.4413C152.632 28.3525 152.377 29.4413 152.377 30.708C152.377 31.9525 152.632 33.0525 153.143 34.008C153.677 34.9413 154.388 35.6636 155.277 36.1747C156.188 36.6858 157.199 36.9413 158.31 36.9413Z" fill="#333333"/>
<path d="M132.215 39.8071C130.437 39.8071 128.781 39.5071 127.248 38.9071C125.737 38.3071 124.426 37.4738 123.315 36.4071C122.203 35.3182 121.337 34.0515 120.715 32.6071C120.092 31.1627 119.781 29.5849 119.781 27.8738C119.781 26.1627 120.092 24.5849 120.715 23.1404C121.337 21.696 122.203 20.4404 123.315 19.3738C124.426 18.2849 125.737 17.4404 127.248 16.8404C128.759 16.2404 130.415 15.9404 132.215 15.9404C133.992 15.9404 135.626 16.2404 137.115 16.8404C138.626 17.4182 139.937 18.2515 141.048 19.3404C142.181 20.4071 143.048 21.6627 143.648 23.1071C144.27 24.5515 144.581 26.1404 144.581 27.8738C144.581 29.6071 144.27 31.196 143.648 32.6404C143.048 34.0849 142.181 35.3515 141.048 36.4404C139.937 37.5071 138.626 38.3404 137.115 38.9404C135.626 39.5182 133.992 39.8071 132.215 39.8071ZM132.215 36.8404C133.503 36.8404 134.692 36.6182 135.781 36.1738C136.892 35.7293 137.848 35.1071 138.648 34.3071C139.47 33.4849 140.103 32.5293 140.548 31.4404C141.015 30.3515 141.248 29.1627 141.248 27.8738C141.248 26.5849 141.015 25.396 140.548 24.3071C140.103 23.2182 139.47 22.2738 138.648 21.4738C137.848 20.6515 136.892 20.0182 135.781 19.5738C134.692 19.1293 133.503 18.9071 132.215 18.9071C130.903 18.9071 129.692 19.1293 128.581 19.5738C127.492 20.0182 126.537 20.6515 125.715 21.4738C124.892 22.2738 124.248 23.2182 123.781 24.3071C123.337 25.396 123.115 26.5849 123.115 27.8738C123.115 29.1627 123.337 30.3515 123.781 31.4404C124.248 32.5293 124.892 33.4849 125.715 34.3071C126.537 35.1071 127.492 35.7293 128.581 36.1738C129.692 36.6182 130.903 36.8404 132.215 36.8404Z" fill="#333333"/>
<path d="M-1.33563e-05 76.3889L0 0L100 1.74846e-05L100 76.3889L50 99.9999L-1.33563e-05 76.3889Z" fill="#FF66A3"/>
<path d="M100 0V76.3887L88.8896 70.833V11.1113H11.1113L0 0H100Z" fill="#FD0769"/>
<path d="M50 88.8884L100 65.2773V76.3884L50 99.9995V88.8884Z" fill="#BD024D"/>
<path d="M25 56.2503V42.3614L44.4444 51.3892L75 29.167V43.171L44.4444 65.3932L25 56.2503Z" fill="#333333"/>
</svg>
